G04*
G04 #@! TF.GenerationSoftware,Altium Limited,Altium Designer,25.8.1 (18)*
G04*
G04 Layer_Color=65535*
%FSLAX44Y44*%
%MOMM*%
G71*
G04*
G04 #@! TF.SameCoordinates,FA5FADA6-1B3F-4E13-A965-911E53457B1D*
G04*
G04*
G04 #@! TF.FilePolarity,Positive*
G04*
G01*
G75*
%ADD10C,0.2500*%
%ADD11C,0.2000*%
%ADD12C,0.2540*%
D10*
X79250Y-6250D02*
G03*
X79250Y-6250I-1250J0D01*
G01*
X-71750Y11250D02*
G03*
X-71750Y11250I-1250J0D01*
G01*
X-17250Y9500D02*
G03*
X-17250Y9500I-1250J0D01*
G01*
D11*
X94750Y-28750D02*
X107000D01*
X135250Y-16000D02*
Y16000D01*
X94750Y28750D02*
X107000D01*
X94750Y13000D02*
Y28750D01*
Y-28750D02*
Y-13000D01*
X-102000Y33750D02*
X-89750D01*
X-130250Y-11000D02*
Y21000D01*
X-102000Y-23750D02*
X-89750D01*
Y-8000D01*
Y18000D02*
Y33750D01*
X1500Y-15000D02*
Y15000D01*
Y-15000D02*
X8500D01*
Y15000D01*
X1500D02*
X8500D01*
D12*
X-82523Y-29686D02*
Y-44921D01*
X-72367D01*
X-67288D02*
X-62210D01*
X-64749D01*
Y-34764D01*
X-67288D01*
X-54592Y-44921D02*
Y-29686D01*
Y-39843D02*
X-46975Y-34764D01*
X-54592Y-39843D02*
X-46975Y-44921D01*
X-39357D02*
X-34279D01*
X-36818D01*
Y-34764D01*
X-39357D01*
X-24122Y-32225D02*
Y-34764D01*
X-26661D01*
X-21583D01*
X-24122D01*
Y-42382D01*
X-21583Y-44921D01*
X-13966Y-29686D02*
Y-44921D01*
Y-37303D01*
X-11426Y-34764D01*
X-6348D01*
X-3809Y-37303D01*
Y-44921D01*
X3809Y-27147D02*
Y-32225D01*
X1270Y-34764D01*
X11426Y-44921D02*
X19044D01*
X21583Y-42382D01*
X19044Y-39843D01*
X13966D01*
X11426Y-37303D01*
X13966Y-34764D01*
X21583D01*
X26661Y-47460D02*
X36818D01*
X41896Y-29686D02*
Y-44921D01*
X52053D01*
X57132Y-29686D02*
Y-44921D01*
X64749D01*
X67288Y-42382D01*
Y-32225D01*
X64749Y-29686D01*
X57132D01*
X79984D02*
X74906D01*
X72367Y-32225D01*
Y-42382D01*
X74906Y-44921D01*
X79984D01*
X82523Y-42382D01*
Y-32225D01*
X79984Y-29686D01*
X-5157Y37617D02*
Y24922D01*
X-2618Y22383D01*
X2461D01*
X5000Y24922D01*
Y37617D01*
X10078Y22383D02*
X15157D01*
X12618D01*
Y37617D01*
X10078Y35078D01*
X107461Y52618D02*
X102382D01*
X104922D01*
Y39922D01*
X102382Y37383D01*
X99843D01*
X97304Y39922D01*
X122696Y37383D02*
X112539D01*
X122696Y47539D01*
Y50078D01*
X120157Y52618D01*
X115078D01*
X112539Y50078D01*
X-110000Y57618D02*
X-115078D01*
X-112539D01*
Y44922D01*
X-115078Y42382D01*
X-117618D01*
X-120157Y44922D01*
X-104922Y42382D02*
X-99843D01*
X-102382D01*
Y57618D01*
X-104922Y55078D01*
X47461Y40078D02*
X44922Y42618D01*
X39843D01*
X37304Y40078D01*
Y29922D01*
X39843Y27383D01*
X44922D01*
X47461Y29922D01*
X62696Y27383D02*
X52539D01*
X62696Y37539D01*
Y40078D01*
X60157Y42618D01*
X55078D01*
X52539Y40078D01*
X-45000D02*
X-47539Y42618D01*
X-52618D01*
X-55157Y40078D01*
Y29922D01*
X-52618Y27383D01*
X-47539D01*
X-45000Y29922D01*
X-39922Y27383D02*
X-34843D01*
X-37382D01*
Y42618D01*
X-39922Y40078D01*
M02*
