G04*
G04 #@! TF.GenerationSoftware,Altium Limited,Altium Designer,25.8.1 (18)*
G04*
G04 Layer_Physical_Order=2*
G04 Layer_Color=16711680*
%FSLAX44Y44*%
%MOMM*%
G71*
G04*
G04 #@! TF.SameCoordinates,FA5FADA6-1B3F-4E13-A965-911E53457B1D*
G04*
G04*
G04 #@! TF.FilePolarity,Positive*
G04*
G01*
G75*
%ADD21C,0.7000*%
G36*
X147042Y59072D02*
X151436Y57252D01*
X155390Y54610D01*
X157071Y52929D01*
X157071D01*
X160000Y50000D01*
Y-30000D01*
Y-32378D01*
X159072Y-37042D01*
X157252Y-41436D01*
X154610Y-45390D01*
X152929Y-47071D01*
X150000Y-50000D01*
X-141981D01*
X-146888Y-49024D01*
X-151510Y-47109D01*
X-155670Y-44330D01*
X-157439Y-42561D01*
X-160000Y-40000D01*
Y30000D01*
Y50000D01*
X-150000Y60000D01*
X142378D01*
X147042Y59072D01*
D02*
G37*
%LPC*%
G36*
X111270Y16012D02*
Y11270D01*
X116012D01*
X115120Y13421D01*
X113421Y15121D01*
X111270Y16012D01*
D02*
G37*
G36*
X108730D02*
X106579Y15121D01*
X104880Y13421D01*
X103988Y11270D01*
X108730D01*
Y16012D01*
D02*
G37*
G36*
X116012Y8730D02*
X111270D01*
Y3988D01*
X113421Y4879D01*
X115120Y6579D01*
X116012Y8730D01*
D02*
G37*
G36*
X108730D02*
X103988D01*
X104880Y6579D01*
X106579Y4879D01*
X108730Y3988D01*
Y8730D01*
D02*
G37*
G36*
X-68730Y5387D02*
Y645D01*
X-63988D01*
X-64879Y2796D01*
X-66579Y4496D01*
X-68730Y5387D01*
D02*
G37*
G36*
X-71270D02*
X-73421Y4496D01*
X-75120Y2796D01*
X-76012Y645D01*
X-71270D01*
Y5387D01*
D02*
G37*
G36*
X-63988Y-1895D02*
X-68730D01*
Y-6637D01*
X-66579Y-5745D01*
X-64879Y-4046D01*
X-63988Y-1895D01*
D02*
G37*
G36*
X-71270D02*
X-76012D01*
X-75120Y-4046D01*
X-73421Y-5745D01*
X-71270Y-6637D01*
Y-1895D01*
D02*
G37*
G36*
X51270Y-13988D02*
Y-18730D01*
X56012D01*
X55121Y-16579D01*
X53421Y-14879D01*
X51270Y-13988D01*
D02*
G37*
G36*
X48730D02*
X46579Y-14879D01*
X44879Y-16579D01*
X43988Y-18730D01*
X48730D01*
Y-13988D01*
D02*
G37*
G36*
X-38730D02*
Y-18730D01*
X-33988D01*
X-34880Y-16579D01*
X-36579Y-14879D01*
X-38730Y-13988D01*
D02*
G37*
G36*
X-41270D02*
X-43421Y-14879D01*
X-45121Y-16579D01*
X-46012Y-18730D01*
X-41270D01*
Y-13988D01*
D02*
G37*
G36*
X56012Y-21270D02*
X51270D01*
Y-26012D01*
X53421Y-25120D01*
X55121Y-23421D01*
X56012Y-21270D01*
D02*
G37*
G36*
X48730D02*
X43988D01*
X44879Y-23421D01*
X46579Y-25120D01*
X48730Y-26012D01*
Y-21270D01*
D02*
G37*
G36*
X-33988D02*
X-38730D01*
Y-26012D01*
X-36579Y-25120D01*
X-34880Y-23421D01*
X-33988Y-21270D01*
D02*
G37*
G36*
X-41270D02*
X-46012D01*
X-45121Y-23421D01*
X-43421Y-25120D01*
X-41270Y-26012D01*
Y-21270D01*
D02*
G37*
%LPD*%
D21*
X-20000Y0D02*
D03*
X110000Y10000D02*
D03*
X50000Y-20000D02*
D03*
X-70000Y-625D02*
D03*
X-40000Y-20000D02*
D03*
M02*
